<?xml version="1.0" encoding="UTF-8"?>
<svg id="Layer_1" data-name="Layer 1" xmlns="http://www.w3.org/2000/svg" viewBox="0 0 1018.68 1018.68">
  <defs>
    <style>
      .cls-1 {
        fill: #065f46;
      }

      .cls-2 {
        fill: #111827;
      }
    </style>
  </defs>
  <rect class="cls-2" width="1018.68" height="1018.68" rx="290.65" ry="290.65"/>
  <g>
    <g>
      <path class="cls-1" d="M332.59,177.72c10.4-8.12,21.88-14.91,34.2-20.09v-23.59c-15.55,5.58-30.08,13.34-43.2,22.91l9,20.77Z"/>
      <path class="cls-1" d="M275.47,281.2c-7.33-8.14-13.08-17.35-17.07-27.56-.08-.2-.16-.41-.25-.61-3.54,13.73-5.44,28.13-5.44,42.95,0,25.95,5.79,50.57,16.12,72.65h24.69c-11.97-21.54-18.81-46.31-18.81-72.65,0-4.99.27-9.91.75-14.78Z"/>
    </g>
    <g>
      <path class="cls-1" d="M503.82,224.67l6.69-24.34c-8.37-7.52-17.73-13.97-27.86-19.1v25.35c7.83,5.09,14.94,11.19,21.17,18.09Z"/>
      <g>
        <g>
          <rect class="cls-1" x="572.29" y="240.11" width="56.7" height="43.41" rx="12.08" ry="12.08" transform="translate(90.82 -149.76) rotate(15.36)"/>
          <rect class="cls-1" x="552.93" y="310.6" width="56.7" height="43.41" rx="12.08" ry="12.08" transform="translate(108.8 -142.11) rotate(15.36)"/>
        </g>
        <rect class="cls-1" x="651.16" y="261.77" width="56.7" height="43.41" rx="12.08" ry="12.08" transform="translate(99.37 -169.88) rotate(15.36)"/>
        <rect class="cls-1" x="730.02" y="283.44" width="56.7" height="43.41" rx="12.08" ry="12.08" transform="translate(107.93 -190) rotate(15.36)"/>
      </g>
    </g>
    <path class="cls-1" d="M634.7,368.63h50.81l4.51-16.43c1.77-6.43-2.01-13.08-8.45-14.85l-31.38-8.62c-6.43-1.77-13.08,2.01-14.85,8.45l-5.1,18.57c-1.36,4.94.57,10,4.44,12.88Z"/>
    <path class="cls-1" d="M769.14,368.63c-.77-4.47-4.03-8.33-8.7-9.61l-31.38-8.62c-6.43-1.77-13.08,2.01-14.85,8.45l-2.69,9.78h57.61Z"/>
    <path class="cls-1" d="M854.99,396.53c-3.6-4.63-9.13-7.34-15-7.34H239.35l-12.83-50.82c-7.22-28.6-30.59-48.58-56.84-48.58h-57.13c-10.49,0-19,8.51-19,19s8.51,19,19,19h57.13c8.82,0,17.04,8.18,19.99,19.88l92.98,368.27c2.14,8.42,9.72,14.32,18.41,14.32h461.89c8.69,0,16.27-5.9,18.41-14.32l77.03-303.07c1.44-5.68.18-11.71-3.42-16.34ZM399.25,668.89c-47.39,0-71.85-14.46-83.22-21.75-3.65-2.34-5.09-6.98-3.41-10.98l13.53-32.3c2.02-4.82,7.73-6.92,12.36-4.49,14.61,7.66,32.33,14.71,60.73,14.71,6.57,0,25.6-1.97,25.6-13.13,0-10.18-13.46-11.82-25.6-14.77-41.03-9.19-84.03-24.95-84.03-72.87,0-44.31,40.38-64.34,84.03-64.34,31.28,0,55.02,7.03,75.14,17.61,4.14,2.18,5.88,7.2,4.01,11.49l-13.88,31.88c-1.99,4.56-7.31,6.64-11.85,4.6-14.25-6.42-36.4-11.09-53.43-11.09-5.25,0-19.04,1.31-19.04,9.85,0,7.55,7.88,10.83,19.04,13.46,31.84,6.89,90.6,19.69,90.6,74.18,0,48.58-46.61,67.95-90.6,67.95ZM746.53,656.01c0,4.94-4.01,8.95-8.95,8.95h-44.47c-4.94,0-8.95-4.01-8.95-8.95v-68.63c0-8.71-11.2-12.29-16.23-5.19-.17.24-.34.48-.51.71l-26.57,37.14c-3.56,4.98-10.95,4.99-14.53.03l-26.85-37.18c-.06-.08-.12-.16-.18-.25-5.07-7.08-16.23-3.51-16.23,5.19v68.17c0,4.94-4.01,8.95-8.95,8.95h-44.47c-4.94,0-8.95-4.01-8.95-8.95v-194.81c0-4.94,4.01-8.95,8.95-8.95h39.56c2.92,0,5.66,1.43,7.34,3.83,0,0,46.14,66.61,49.57,71.9,3.53,5.42,11.46,5.42,14.99,0,3.44-5.28,49.57-71.9,49.57-71.9,1.67-2.4,4.41-3.83,7.34-3.83h39.56c4.94,0,8.95,4.01,8.95,8.95v194.81Z"/>
    <g>
      <path class="cls-1" d="M350.66,219.42c4.94-4.78,10.34-9.1,16.13-12.86v-25.35c-9.13,4.63-17.64,10.31-25.37,16.9l9.24,21.31Z"/>
      <path class="cls-1" d="M328.95,342.73c-1.46-2.98-2.79-6.04-3.97-9.17l-11.06-25.52c-6.36-2.75-12.27-5.9-17.73-9.4.53,25.93,8.75,49.99,22.5,70h21.49l-11.22-25.9Z"/>
    </g>
    <path class="cls-1" d="M364.15,368.63h27.18l-40.22-92.84-67.6-156.02-.02-.04c-.27-.61-.59-1.19-.94-1.74-.03-.05-.06-.1-.09-.14-3.26-4.98-9.72-7.06-15.38-4.61-4.56,1.98-7.33,6.36-7.5,11.02-.75,9.67-.77,20.52-.05,32.38,2.57,37.21,12.19,71.51,19.29,88.83,8.41,21.67,26.77,36.68,51.63,45.4l33.68,77.74Z"/>
    <path class="cls-1" d="M412.23,237.11v131.52h24.94v-131.52c14.5-5.15,24.94-18.97,24.94-35.22,0,0,0-.01,0-.02v-101.61c0-4.13-3.35-7.48-7.48-7.48s-7.48,3.35-7.48,7.48v81.71c-.02,4.11-3.36,7.45-7.48,7.45s-7.46-3.33-7.48-7.45v-81.71c0-4.13-3.35-7.48-7.48-7.48s-7.48,3.35-7.48,7.48v81.71c-.02,4.11-3.36,7.45-7.48,7.45s-7.46-3.33-7.48-7.45v-81.71c0-4.13-3.35-7.48-7.48-7.48s-7.48,3.35-7.48,7.48v101.61s0,.01,0,.01c0,16.25,10.43,30.08,24.94,35.23Z"/>
    <path class="cls-1" d="M522.98,154.92c-12.36-8.64-25.9-15.69-40.33-20.87v23.59c12.28,5.16,23.72,11.93,34.09,20.01l6.24-22.73Z"/>
    <path class="cls-1" d="M850.4,183.4l-25.86-7.1-10.28,37.43c-3.53,12.84-15.29,21.82-28.6,21.82-2.65,0-5.3-.36-7.87-1.06-15.78-4.33-25.09-20.7-20.75-36.47l10.28-37.43-100.51-27.61-10.28,37.43c-3.53,12.84-15.29,21.82-28.6,21.82-2.65,0-5.3-.36-7.87-1.06-7.64-2.1-14.01-7.05-17.93-13.94-3.92-6.89-4.92-14.89-2.82-22.53l10.28-37.43-25.86-7.1c-14.76-4.05-30.01,4.62-34.07,19.38l-65.29,237.66c-.13.48-.25.96-.35,1.44h28.84l49.33-179.56,266.4,73.19-29.22,106.37h28.89l41.53-151.16c4.05-14.76-4.62-30.01-19.38-34.07Z"/>
    <rect class="cls-1" x="616.15" y="92.69" width="37.34" height="89.44" rx="18.67" ry="18.67" transform="translate(59.08 -163.26) rotate(15.36)"/>
    <rect class="cls-1" x="773.87" y="136.02" width="37.34" height="89.44" rx="18.67" ry="18.67" transform="translate(76.19 -203.49) rotate(15.36)"/>
  </g>
  <g>
    <circle class="cls-1" cx="399.67" cy="843.63" r="82.27"/>
    <circle class="cls-1" cx="664.37" cy="843.63" r="82.27"/>
  </g>
</svg>